M48
; DRILL file {KiCad (5.1.6)-1} date 09/12/20 17:49:53
; FORMAT={-:-/ absolute / inch / decimal}
; #@! TF.CreationDate,2020-09-12T17:49:53+07:00
; #@! TF.GenerationSoftware,Kicad,Pcbnew,(5.1.6)-1
; #@! TF.FileFunction,Plated,1,2,PTH
FMAT,2
INCH
T1C0.0118
T2C0.0157
T3C0.0276
T4C0.0315
T5C0.0354
T6C0.0394
T7C0.0433
%
G90
G05
T1
X6.775Y-3.77
X6.8375Y-3.6825
X6.875Y-3.66
X6.975Y-3.66
X7.075Y-3.655
X7.215Y-3.58
T2
X6.58Y-4.07
X6.77Y-3.06
X7.22Y-3.06
X7.41Y-4.295
X7.67Y-3.06
X8.115Y-3.06
T3
X7.955Y-1.25
X7.955Y-1.45
X7.955Y-2.25
X7.955Y-2.45
X7.175Y-3.175
X7.175Y-3.375
X6.605Y-1.25
X6.605Y-1.45
X6.605Y-2.75
X6.605Y-2.95
X7.055Y-1.25
X7.055Y-1.45
X7.505Y-1.25
X7.505Y-1.45
X7.505Y-2.75
X7.505Y-2.95
X7.505Y-1.75
X7.505Y-1.95
X6.605Y-1.75
X6.605Y-1.95
X7.055Y-2.25
X7.055Y-2.45
X7.055Y-2.75
X7.055Y-2.95
X7.955Y-1.75
X7.955Y-1.95
X7.275Y-3.175
X7.275Y-3.375
X6.875Y-3.175
X6.875Y-3.375
X7.075Y-3.175
X7.075Y-3.375
X7.1Y-4.015
X7.1Y-4.215
X7.955Y-2.75
X7.955Y-2.95
X7.055Y-1.75
X7.055Y-1.95
X7.505Y-2.25
X7.505Y-2.45
X6.975Y-3.175
X6.975Y-3.375
X6.605Y-2.25
X6.605Y-2.45
T4
X6.675Y-3.525
X6.675Y-3.825
X6.775Y-3.525
X6.775Y-3.825
X6.875Y-3.525
X6.875Y-3.825
X6.975Y-3.525
X6.975Y-3.825
X7.075Y-3.525
X7.075Y-3.825
X7.175Y-3.525
X7.175Y-3.825
X7.275Y-3.525
X7.275Y-3.825
X8.1066Y-2.6
X8.205Y-2.6
X6.7566Y-2.1
X6.855Y-2.1
X7.2066Y-1.1
X7.305Y-1.1
X6.425Y-3.125
X6.5037Y-3.125
X7.6566Y-2.1
X7.755Y-2.1
X6.7566Y-1.1
X6.855Y-1.1
X8.1066Y-1.1
X8.205Y-1.1
X7.6566Y-1.1
X7.755Y-1.1
X7.2066Y-1.6
X7.305Y-1.6
X6.475Y-3.6266
X6.475Y-3.725
X6.425Y-3.425
X6.5037Y-3.425
X7.6566Y-2.6
X7.755Y-2.6
X6.7566Y-2.6
X6.855Y-2.6
X7.2066Y-2.1
X7.305Y-2.1
X8.1066Y-1.6
X8.205Y-1.6
X6.7566Y-1.6
X6.855Y-1.6
X7.2066Y-2.6
X7.305Y-2.6
X7.6566Y-1.6
X7.755Y-1.6
X8.1066Y-2.1
X8.205Y-2.1
T5
X6.73Y-1.35
X6.78Y-1.35
X6.83Y-1.35
X6.88Y-1.35
X7.63Y-2.35
X7.68Y-2.35
X7.73Y-2.35
X7.78Y-2.35
X7.18Y-1.35
X7.23Y-1.35
X7.28Y-1.35
X7.33Y-1.35
X8.08Y-2.35
X8.13Y-2.35
X8.18Y-2.35
X8.23Y-2.35
X7.63Y-2.85
X7.68Y-2.85
X7.73Y-2.85
X7.78Y-2.85
X7.18Y-1.85
X7.23Y-1.85
X7.28Y-1.85
X7.33Y-1.85
X6.73Y-1.85
X6.78Y-1.85
X6.83Y-1.85
X6.88Y-1.85
X7.18Y-2.85
X7.23Y-2.85
X7.28Y-2.85
X7.33Y-2.85
X8.08Y-1.35
X8.13Y-1.35
X8.18Y-1.35
X8.23Y-1.35
X7.61Y-3.325
X7.71Y-3.325
X7.63Y-1.85
X7.68Y-1.85
X7.73Y-1.85
X7.78Y-1.85
X8.08Y-2.85
X8.13Y-2.85
X8.18Y-2.85
X8.23Y-2.85
X7.63Y-1.35
X7.68Y-1.35
X7.73Y-1.35
X7.78Y-1.35
X6.73Y-2.85
X6.78Y-2.85
X6.83Y-2.85
X6.88Y-2.85
X7.18Y-2.35
X7.23Y-2.35
X7.28Y-2.35
X7.33Y-2.35
X6.73Y-2.35
X6.78Y-2.35
X6.83Y-2.35
X6.88Y-2.35
X8.08Y-1.85
X8.13Y-1.85
X8.18Y-1.85
X8.23Y-1.85
T6
X7.275Y-4.025
X7.275Y-4.125
X7.275Y-4.225
X7.375Y-4.025
X7.375Y-4.125
X7.375Y-4.225
X6.425Y-4.275
X6.525Y-4.275
T7
X6.66Y-3.155
X6.66Y-3.255
X6.66Y-3.355
X8.225Y-3.5941
X8.225Y-3.85
X8.4022Y-3.5941
X8.4022Y-3.85
X7.9Y-3.9941
X7.9Y-4.25
X8.0772Y-3.9941
X8.0772Y-4.25
X6.675Y-4.025
X6.675Y-4.2022
X6.9309Y-4.025
X6.9309Y-4.2022
X7.9Y-3.1941
X7.9Y-3.45
X8.0772Y-3.1941
X8.0772Y-3.45
X7.575Y-3.5941
X7.575Y-3.85
X7.7522Y-3.5941
X7.7522Y-3.85
T0
M30
