%TF.GenerationSoftware,KiCad,Pcbnew,(5.1.6)-1*%
%TF.CreationDate,2020-09-12T17:49:51+07:00*%
%TF.ProjectId,board2048_ws2812,626f6172-6432-4303-9438-5f7773323831,1*%
%TF.SameCoordinates,Original*%
%TF.FileFunction,Soldermask,Bot*%
%TF.FilePolarity,Negative*%
%FSLAX46Y46*%
G04 Gerber Fmt 4.6, Leading zero omitted, Abs format (unit mm)*
G04 Created by KiCad (PCBNEW (5.1.6)-1) date 2020-09-12 17:49:51*
%MOMM*%
%LPD*%
G01*
G04 APERTURE LIST*
%ADD10C,3.100000*%
%ADD11O,2.100000X2.005000*%
%ADD12R,2.100000X2.005000*%
%ADD13C,1.900000*%
%ADD14R,1.900000X1.900000*%
%ADD15O,1.700000X1.700000*%
%ADD16R,1.700000X1.700000*%
%ADD17C,2.100000*%
%ADD18O,1.500000X1.500000*%
%ADD19C,1.500000*%
%ADD20O,1.800000X1.800000*%
%ADD21R,1.800000X1.800000*%
%ADD22R,1.170000X1.900000*%
%ADD23O,1.170000X1.900000*%
%ADD24C,1.700000*%
G04 APERTURE END LIST*
D10*
%TO.C,REF\u002A\u002A*%
X164211000Y-101473000D03*
%TD*%
D11*
%TO.C,U2*%
X169164000Y-85217000D03*
X169164000Y-82677000D03*
D12*
X169164000Y-80137000D03*
%TD*%
D13*
%TO.C,D17*%
X193294000Y-84455000D03*
D14*
X195834000Y-84455000D03*
%TD*%
D15*
%TO.C,U1*%
X169545000Y-89535000D03*
X184785000Y-97155000D03*
X172085000Y-89535000D03*
X182245000Y-97155000D03*
X174625000Y-89535000D03*
X179705000Y-97155000D03*
X177165000Y-89535000D03*
X177165000Y-97155000D03*
X179705000Y-89535000D03*
X174625000Y-97155000D03*
X182245000Y-89535000D03*
X172085000Y-97155000D03*
X184785000Y-89535000D03*
D16*
X169545000Y-97155000D03*
%TD*%
D17*
%TO.C,SW5*%
X176045000Y-102235000D03*
X176045000Y-106735000D03*
X169545000Y-102235000D03*
X169545000Y-106735000D03*
%TD*%
%TO.C,SW4*%
X200660000Y-81130000D03*
X205160000Y-81130000D03*
X200660000Y-87630000D03*
X205160000Y-87630000D03*
%TD*%
%TO.C,SW3*%
X208915000Y-91290000D03*
X213415000Y-91290000D03*
X208915000Y-97790000D03*
X213415000Y-97790000D03*
%TD*%
%TO.C,SW2*%
X192405000Y-91290000D03*
X196905000Y-91290000D03*
X192405000Y-97790000D03*
X196905000Y-97790000D03*
%TD*%
%TO.C,SW1*%
X200660000Y-101450000D03*
X205160000Y-101450000D03*
X200660000Y-107950000D03*
X205160000Y-107950000D03*
%TD*%
D18*
%TO.C,R22*%
X180340000Y-101981000D03*
D19*
X180340000Y-107061000D03*
%TD*%
D18*
%TO.C,R21*%
X182245000Y-85725000D03*
D19*
X182245000Y-80645000D03*
%TD*%
D18*
%TO.C,R20*%
X177165000Y-85725000D03*
D19*
X177165000Y-80645000D03*
%TD*%
D18*
%TO.C,R19*%
X179705000Y-85725000D03*
D19*
X179705000Y-80645000D03*
%TD*%
D18*
%TO.C,R18*%
X184785000Y-85725000D03*
D19*
X184785000Y-80645000D03*
%TD*%
D18*
%TO.C,R17*%
X174625000Y-85725000D03*
D19*
X174625000Y-80645000D03*
%TD*%
%TO.C,R16*%
X202057000Y-74930000D03*
D18*
X202057000Y-69850000D03*
%TD*%
D19*
%TO.C,R15*%
X190627000Y-74930000D03*
D18*
X190627000Y-69850000D03*
%TD*%
D19*
%TO.C,R14*%
X179197000Y-74930000D03*
D18*
X179197000Y-69850000D03*
%TD*%
D19*
%TO.C,R13*%
X167767000Y-74930000D03*
D18*
X167767000Y-69850000D03*
%TD*%
D19*
%TO.C,R12*%
X202057000Y-62230000D03*
D18*
X202057000Y-57150000D03*
%TD*%
D19*
%TO.C,R11*%
X190627000Y-62230000D03*
D18*
X190627000Y-57150000D03*
%TD*%
D19*
%TO.C,R10*%
X179197000Y-62230000D03*
D18*
X179197000Y-57150000D03*
%TD*%
D19*
%TO.C,R9*%
X167767000Y-62230000D03*
D18*
X167767000Y-57150000D03*
%TD*%
D19*
%TO.C,R8*%
X202057000Y-49530000D03*
D18*
X202057000Y-44450000D03*
%TD*%
D19*
%TO.C,R7*%
X190627000Y-49530000D03*
D18*
X190627000Y-44450000D03*
%TD*%
D19*
%TO.C,R6*%
X179197000Y-49530000D03*
D18*
X179197000Y-44450000D03*
%TD*%
D19*
%TO.C,R5*%
X167767000Y-49530000D03*
D18*
X167767000Y-44450000D03*
%TD*%
D19*
%TO.C,R4*%
X202057000Y-36830000D03*
D18*
X202057000Y-31750000D03*
%TD*%
D19*
%TO.C,R3*%
X190627000Y-36830000D03*
D18*
X190627000Y-31750000D03*
%TD*%
D19*
%TO.C,R2*%
X179197000Y-36830000D03*
D18*
X179197000Y-31750000D03*
%TD*%
D19*
%TO.C,R1*%
X167767000Y-36830000D03*
D18*
X167767000Y-31750000D03*
%TD*%
D20*
%TO.C,J1*%
X187325000Y-107315000D03*
X184785000Y-107315000D03*
X187325000Y-104775000D03*
X184785000Y-104775000D03*
X187325000Y-102235000D03*
D21*
X184785000Y-102235000D03*
%TD*%
D22*
%TO.C,D16*%
X209042000Y-72390000D03*
D23*
X207772000Y-72390000D03*
X206502000Y-72390000D03*
X205232000Y-72390000D03*
%TD*%
D22*
%TO.C,D15*%
X197612000Y-72390000D03*
D23*
X196342000Y-72390000D03*
X195072000Y-72390000D03*
X193802000Y-72390000D03*
%TD*%
D22*
%TO.C,D14*%
X186182000Y-72390000D03*
D23*
X184912000Y-72390000D03*
X183642000Y-72390000D03*
X182372000Y-72390000D03*
%TD*%
D22*
%TO.C,D13*%
X174752000Y-72390000D03*
D23*
X173482000Y-72390000D03*
X172212000Y-72390000D03*
X170942000Y-72390000D03*
%TD*%
D22*
%TO.C,D12*%
X209042000Y-59690000D03*
D23*
X207772000Y-59690000D03*
X206502000Y-59690000D03*
X205232000Y-59690000D03*
%TD*%
D22*
%TO.C,D11*%
X197612000Y-59690000D03*
D23*
X196342000Y-59690000D03*
X195072000Y-59690000D03*
X193802000Y-59690000D03*
%TD*%
D22*
%TO.C,D10*%
X186182000Y-59690000D03*
D23*
X184912000Y-59690000D03*
X183642000Y-59690000D03*
X182372000Y-59690000D03*
%TD*%
D22*
%TO.C,D9*%
X174752000Y-59690000D03*
D23*
X173482000Y-59690000D03*
X172212000Y-59690000D03*
X170942000Y-59690000D03*
%TD*%
D22*
%TO.C,D8*%
X209042000Y-46990000D03*
D23*
X207772000Y-46990000D03*
X206502000Y-46990000D03*
X205232000Y-46990000D03*
%TD*%
D22*
%TO.C,D7*%
X197612000Y-46990000D03*
D23*
X196342000Y-46990000D03*
X195072000Y-46990000D03*
X193802000Y-46990000D03*
%TD*%
D22*
%TO.C,D6*%
X186182000Y-46990000D03*
D23*
X184912000Y-46990000D03*
X183642000Y-46990000D03*
X182372000Y-46990000D03*
%TD*%
D22*
%TO.C,D5*%
X174752000Y-46990000D03*
D23*
X173482000Y-46990000D03*
X172212000Y-46990000D03*
X170942000Y-46990000D03*
%TD*%
D22*
%TO.C,D4*%
X209042000Y-34290000D03*
D23*
X207772000Y-34290000D03*
X206502000Y-34290000D03*
X205232000Y-34290000D03*
%TD*%
D22*
%TO.C,D3*%
X197612000Y-34290000D03*
D23*
X196342000Y-34290000D03*
X195072000Y-34290000D03*
X193802000Y-34290000D03*
%TD*%
D22*
%TO.C,D2*%
X186182000Y-34290000D03*
D23*
X184912000Y-34290000D03*
X183642000Y-34290000D03*
X182372000Y-34290000D03*
%TD*%
D22*
%TO.C,D1*%
X174752000Y-34290000D03*
D23*
X173482000Y-34290000D03*
X172212000Y-34290000D03*
X170942000Y-34290000D03*
%TD*%
D24*
%TO.C,C19*%
X165195000Y-79375000D03*
D16*
X163195000Y-79375000D03*
%TD*%
D24*
%TO.C,C18*%
X165195000Y-86995000D03*
D16*
X163195000Y-86995000D03*
%TD*%
D24*
%TO.C,C17*%
X164465000Y-92115000D03*
X164465000Y-94615000D03*
%TD*%
%TO.C,C16*%
X208407000Y-66040000D03*
X205907000Y-66040000D03*
%TD*%
%TO.C,C15*%
X196977000Y-66040000D03*
X194477000Y-66040000D03*
%TD*%
%TO.C,C14*%
X185547000Y-66040000D03*
X183047000Y-66040000D03*
%TD*%
%TO.C,C13*%
X174117000Y-66040000D03*
X171617000Y-66040000D03*
%TD*%
%TO.C,C12*%
X208407000Y-53340000D03*
X205907000Y-53340000D03*
%TD*%
%TO.C,C11*%
X196977000Y-53340000D03*
X194477000Y-53340000D03*
%TD*%
%TO.C,C10*%
X185547000Y-53340000D03*
X183047000Y-53340000D03*
%TD*%
%TO.C,C9*%
X174117000Y-53340000D03*
X171617000Y-53340000D03*
%TD*%
%TO.C,C8*%
X208407000Y-40640000D03*
X205907000Y-40640000D03*
%TD*%
%TO.C,C7*%
X196977000Y-40640000D03*
X194477000Y-40640000D03*
%TD*%
%TO.C,C6*%
X185547000Y-40640000D03*
X183047000Y-40640000D03*
%TD*%
%TO.C,C5*%
X174117000Y-40640000D03*
X171617000Y-40640000D03*
%TD*%
%TO.C,C4*%
X208407000Y-27940000D03*
X205907000Y-27940000D03*
%TD*%
%TO.C,C3*%
X196977000Y-27940000D03*
X194477000Y-27940000D03*
%TD*%
%TO.C,C2*%
X185547000Y-27940000D03*
X183047000Y-27940000D03*
%TD*%
%TO.C,C1*%
X174117000Y-27940000D03*
X171617000Y-27940000D03*
%TD*%
D20*
%TO.C,BT1*%
X165735000Y-108585000D03*
D21*
X163195000Y-108585000D03*
%TD*%
M02*
